<?xml version="1.0" encoding="UTF-8"?>
<svg id="_레이어_2" data-name="레이어 2" xmlns="http://www.w3.org/2000/svg" viewBox="0 0 564.73 93.13">
  <defs>
    <style>
      .cls-1 {
        fill: #fff;
        stroke-width: 0px;
      }
    </style>
  </defs>
  <g id="_레이어_1-2" data-name="레이어 1">
    <g>
      <path class="cls-1" d="M0,1.26h15.04v77.25h36.79v13.36H0V1.26Z"/>
      <path class="cls-1" d="M88.62,1.26h13.67l30.87,90.61h-15.72l-6.38-20.29h-31.1l-6.26,20.29h-15.83L88.62,1.26ZM95.56,21.55l-11.39,36.55h22.67l-11.28-36.55Z"/>
      <path class="cls-1" d="M195.46,1.26l-27.34,57.34v33.27h-15.15v-33.27L125.63,1.26h16.52l18.45,42.22L178.94,1.26h16.52Z"/>
      <path class="cls-1" d="M202.06,1.26h53.88v13.36h-38.84v24.07h33.37v12.98h-33.37v26.84h39.07v13.36h-54.1V1.26Z"/>
      <path class="cls-1" d="M316.76,8.25c5.16,4.66,7.75,11.4,7.75,20.23,0,6.13-1.29,11.28-3.87,15.44-2.58,4.16-6.26,7.33-11.05,9.51l18.22,37.55v.88h-16.17l-16.06-34.28h-15.26v34.28h-14.92V1.26h29.39c9.49,0,16.82,2.33,21.98,6.99ZM280.31,44.11h14.58c4.71,0,8.31-1.32,10.82-3.97s3.76-6.19,3.76-10.65c0-4.7-1.22-8.36-3.65-10.96-2.43-2.6-6.11-3.91-11.05-3.91h-14.47v29.49Z"/>
      <path class="cls-1" d="M360.16,57.46l12.76-56.2h12.64l12.53,55.83,2.39,11.47,1.94-12.1,10.14-55.2h14.92l-18.57,90.61h-14.81l-13.44-57.46-1.37-6.93-1.59,7.06-13.44,57.34h-14.81L330.77,1.26h14.92l10.37,55.7,1.82,11.47,2.28-10.96Z"/>
      <path class="cls-1" d="M435.68,1.26h15.04v42.09l7.86-11.09,23.01-31h18.34l-30.07,40.07,31.55,50.53h-18l-23.46-38.18-9.23,10.71v27.47h-15.04V1.26Z"/>
      <path class="cls-1" d="M548.27,62.13c-.95-1.68-2.64-3.21-5.07-4.6-2.43-1.39-6-2.88-10.71-4.47-8.58-2.94-15.25-6.57-19.99-10.9-4.75-4.33-7.12-9.98-7.12-16.95,0-4.96,1.25-9.35,3.76-13.17,2.51-3.82,5.98-6.78,10.42-8.88,4.44-2.1,9.55-3.15,15.32-3.15s11.24,1.22,15.72,3.65c4.48,2.44,7.93,5.76,10.37,9.96,2.43,4.2,3.65,8.91,3.65,14.11h-15.04c0-4.45-1.25-7.98-3.76-10.59-2.51-2.6-6.23-3.91-11.16-3.91-4.63,0-8.16,1.09-10.59,3.28-2.43,2.19-3.65,5.04-3.65,8.57,0,3.11,1.38,5.78,4.16,8,2.77,2.23,7.12,4.31,13.04,6.24,9.26,3.02,16.1,6.8,20.5,11.34,4.4,4.54,6.61,10.38,6.61,17.52,0,7.73-2.66,13.82-7.97,18.27-5.32,4.45-12.45,6.68-21.41,6.68-5.54,0-10.78-1.09-15.72-3.28-4.94-2.18-8.96-5.46-12.07-9.83-3.11-4.37-4.67-9.7-4.67-16h15.03c0,5.46,1.58,9.49,4.73,12.1,3.15,2.6,7.38,3.91,12.7,3.91,4.63,0,8.18-1.07,10.65-3.21,2.47-2.14,3.7-4.98,3.7-8.51,0-2.44-.48-4.49-1.42-6.18Z"/>
    </g>
  </g>
</svg>